<?xml version="1.0" encoding="UTF-8"?>
<svg width="1440px" height="874px" viewBox="0 0 1440 874" version="1.1" xmlns="http://www.w3.org/2000/svg" xmlns:xlink="http://www.w3.org/1999/xlink">
    <!-- Generator: Sketch 53.2 (72643) - https://sketchapp.com -->
    <title>Desktop HD Copy 9</title>
    <desc>Created with Sketch.</desc>
    <g id="Desktop-HD-Copy-9" stroke="none" stroke-width="1" fill="none" fill-rule="evenodd">
        <rect fill="#000000" x="0" y="0" width="1440" height="874"></rect>
        <rect id="Rectangle" stroke="#979797" fill="#000000" x="0.5" y="0.5" width="1439" height="873"></rect>
        <path d="M104,403.175 L114.439,403.175 L114.439,420.049 C121.446,407.894 137.605,400.458 157.339,400.458 C185.796,400.458 204.386,415.616 204.386,439.211 C204.386,461.805 184.509,477.392 156.767,477.392 C138.177,477.392 121.16,470.099 114.439,459.517 L114.439,502.56 L104,502.56 L104,403.175 Z M153.764,468.097 C177.931,468.097 193.089,457.086 193.089,439.211 C193.089,420.907 178.503,409.753 155.051,409.753 C131.17,409.753 114.296,421.479 114.296,437.924 L114.296,440.641 C114.296,456.8 130.312,468.097 153.764,468.097 Z M267.02,477.392 C237.133,477.392 216.827,461.948 216.827,438.925 C216.827,415.902 237.133,400.458 267.02,400.458 C296.764,400.458 317.07,415.902 317.07,438.925 C317.07,461.948 296.764,477.392 267.02,477.392 Z M267.02,468.24 C290.615,468.24 305.916,456.943 305.916,438.925 C305.916,420.907 290.615,409.61 267.02,409.61 C243.425,409.61 227.981,420.907 227.981,438.925 C227.981,456.943 243.425,468.24 267.02,468.24 Z M339.092,403.175 L349.531,403.175 L349.531,420.049 C356.538,407.894 372.697,400.458 392.431,400.458 C420.888,400.458 439.478,415.616 439.478,439.211 C439.478,461.805 419.601,477.392 391.859,477.392 C373.269,477.392 356.252,470.099 349.531,459.517 L349.531,502.56 L339.092,502.56 L339.092,403.175 Z M388.856,468.097 C413.023,468.097 428.181,457.086 428.181,439.211 C428.181,420.907 413.595,409.753 390.143,409.753 C366.262,409.753 349.388,421.479 349.388,437.924 L349.388,440.641 C349.388,456.8 365.404,468.097 388.856,468.097 Z M502.112,477.392 C472.225,477.392 451.919,461.948 451.919,438.925 C451.919,415.902 472.225,400.458 502.112,400.458 C531.856,400.458 552.162,415.902 552.162,438.925 C552.162,461.948 531.856,477.392 502.112,477.392 Z M502.112,468.24 C525.707,468.24 541.008,456.943 541.008,438.925 C541.008,420.907 525.707,409.61 502.112,409.61 C478.517,409.61 463.073,420.907 463.073,438.925 C463.073,456.943 478.517,468.24 502.112,468.24 Z M585.481,474.675 L574.899,474.675 L574.899,371 L585.481,371 L585.481,474.675 Z M658.268,477.392 C628.381,477.392 608.075,461.948 608.075,438.925 C608.075,415.902 628.381,400.458 658.268,400.458 C688.012,400.458 708.318,415.902 708.318,438.925 C708.318,461.948 688.012,477.392 658.268,477.392 Z M658.268,468.24 C681.863,468.24 697.164,456.943 697.164,438.925 C697.164,420.907 681.863,409.61 658.268,409.61 C634.673,409.61 619.229,420.907 619.229,438.925 C619.229,456.943 634.673,468.24 658.268,468.24 Z M744.926,474.675 L728.338,474.675 L728.338,458.945 L744.926,458.945 L744.926,474.675 Z M815.997,477.392 C789.828,477.392 774.67,469.813 767.091,455.799 L776.815,451.366 C782.392,462.52 795.548,468.669 817.57,468.669 C836.303,468.669 846.027,463.95 846.027,454.512 C846.027,448.363 842.452,445.074 830.011,444.216 L794.833,441.499 C778.388,440.069 769.951,434.206 769.951,422.194 C769.951,408.752 784.68,400.458 809.276,400.458 C834.587,400.458 849.888,407.751 855.751,419.62 L845.598,423.624 C839.592,413.757 829.296,409.038 808.275,409.038 C789.256,409.038 780.533,413.757 780.533,421.908 C780.533,428.057 785.538,431.489 796.406,432.347 L831.727,435.064 C850.031,436.637 856.609,442.929 856.609,453.94 C856.609,467.954 844.74,477.392 815.997,477.392 Z M868.049,403.175 L890.786,403.175 L890.786,384.299 L901.225,379.723 L901.225,403.175 L937.261,403.175 L937.261,411.898 L901.225,411.898 L901.225,448.792 C901.225,461.948 908.518,466.667 920.959,466.667 C926.679,466.667 932.399,465.952 937.547,464.665 L937.547,474.103 C933.829,475.533 926.25,476.677 920.101,476.677 C895.648,476.677 890.786,463.664 890.786,449.65 L890.786,411.898 L868.049,411.898 L868.049,403.175 Z M996.892,477.392 C970.151,477.392 956.423,465.094 956.423,439.211 L956.423,403.175 L966.862,403.175 L966.862,438.782 C966.862,462.806 983.45,468.383 998.465,468.383 C1026.779,468.383 1037.933,450.222 1037.933,435.35 L1037.933,403.175 L1048.515,403.175 L1048.515,474.675 L1038.076,474.675 L1038.076,454.226 C1031.784,469.527 1016.626,477.392 996.892,477.392 Z M1118.442,477.392 C1090.557,477.392 1070.966,461.376 1070.966,439.068 C1070.966,416.188 1089.985,400.458 1119.014,400.458 C1138.176,400.458 1152.333,406.893 1160.913,419.048 L1160.913,371 L1171.352,371 L1171.352,474.675 L1161.056,474.675 L1161.056,458.516 C1152.905,470.814 1138.319,477.392 1118.442,477.392 Z M1121.159,468.097 C1144.754,468.097 1161.056,456.514 1161.056,440.784 L1161.056,437.924 C1161.056,421.765 1144.182,409.61 1120.015,409.61 C1096.277,409.61 1082.12,420.907 1082.12,439.068 C1082.12,456.8 1097.135,468.097 1121.159,468.097 Z M1202.812,374.003 L1215.682,374.003 L1215.682,390.162 L1202.812,390.162 L1202.812,374.003 Z M1204.099,403.175 L1214.681,403.175 L1214.681,474.675 L1204.099,474.675 L1204.099,403.175 Z M1286.753,477.392 C1256.866,477.392 1236.56,461.948 1236.56,438.925 C1236.56,415.902 1256.866,400.458 1286.753,400.458 C1316.497,400.458 1336.803,415.902 1336.803,438.925 C1336.803,461.948 1316.497,477.392 1286.753,477.392 Z M1286.753,468.24 C1310.348,468.24 1325.649,456.943 1325.649,438.925 C1325.649,420.907 1310.348,409.61 1286.753,409.61 C1263.158,409.61 1247.714,420.907 1247.714,438.925 C1247.714,456.943 1263.158,468.24 1286.753,468.24 Z" id="popolo.studio" fill="#FFFFFF" fill-rule="nonzero"></path>
    </g>
</svg>