<?xml version="1.0" encoding="UTF-8"?>
<svg width="1234px" height="132px" viewBox="0 0 1234 132" version="1.1" xmlns="http://www.w3.org/2000/svg" xmlns:xlink="http://www.w3.org/1999/xlink">
    <!-- Generator: Sketch 53.2 (72643) - https://sketchapp.com -->
    <title>popolo.studio</title>
    <desc>Created with Sketch.</desc>
    <g id="Round-1" stroke="none" stroke-width="1" fill="none" fill-rule="evenodd">
        <g id="Desktop-HD-Copy-9" transform="translate(-103.000000, -341.000000)" fill="#0000FF" fill-rule="nonzero">
            <path d="M103.777145,373.311974 L114.216145,373.311974 L114.216145,390.185974 C121.223145,378.030974 137.382145,370.594974 157.116145,370.594974 C185.573145,370.594974 204.163145,385.752974 204.163145,409.347974 C204.163145,431.941974 184.286145,447.528974 156.544145,447.528974 C137.954145,447.528974 120.937145,440.235974 114.216145,429.653974 L114.216145,472.696974 L103.777145,472.696974 L103.777145,373.311974 Z M153.541145,438.233974 C177.708145,438.233974 192.866145,427.222974 192.866145,409.347974 C192.866145,391.043974 178.280145,379.889974 154.828145,379.889974 C130.947145,379.889974 114.073145,391.615974 114.073145,408.060974 L114.073145,410.777974 C114.073145,426.936974 130.089145,438.233974 153.541145,438.233974 Z M266.797145,447.528974 C236.910145,447.528974 216.604145,432.084974 216.604145,409.061974 C216.604145,386.038974 236.910145,370.594974 266.797145,370.594974 C296.541145,370.594974 316.847145,386.038974 316.847145,409.061974 C316.847145,432.084974 296.541145,447.528974 266.797145,447.528974 Z M266.797145,438.376974 C290.392145,438.376974 305.693145,427.079974 305.693145,409.061974 C305.693145,391.043974 290.392145,379.746974 266.797145,379.746974 C243.202145,379.746974 227.758145,391.043974 227.758145,409.061974 C227.758145,427.079974 243.202145,438.376974 266.797145,438.376974 Z M338.869145,373.311974 L349.308145,373.311974 L349.308145,390.185974 C356.315145,378.030974 372.474145,370.594974 392.208145,370.594974 C420.665145,370.594974 439.255145,385.752974 439.255145,409.347974 C439.255145,431.941974 419.378145,447.528974 391.636145,447.528974 C373.046145,447.528974 356.029145,440.235974 349.308145,429.653974 L349.308145,472.696974 L338.869145,472.696974 L338.869145,373.311974 Z M388.633145,438.233974 C412.800145,438.233974 427.958145,427.222974 427.958145,409.347974 C427.958145,391.043974 413.372145,379.889974 389.920145,379.889974 C366.039145,379.889974 349.165145,391.615974 349.165145,408.060974 L349.165145,410.777974 C349.165145,426.936974 365.181145,438.233974 388.633145,438.233974 Z M501.889145,447.528974 C472.002145,447.528974 451.696145,432.084974 451.696145,409.061974 C451.696145,386.038974 472.002145,370.594974 501.889145,370.594974 C531.633145,370.594974 551.939145,386.038974 551.939145,409.061974 C551.939145,432.084974 531.633145,447.528974 501.889145,447.528974 Z M501.889145,438.376974 C525.484145,438.376974 540.785145,427.079974 540.785145,409.061974 C540.785145,391.043974 525.484145,379.746974 501.889145,379.746974 C478.294145,379.746974 462.850145,391.043974 462.850145,409.061974 C462.850145,427.079974 478.294145,438.376974 501.889145,438.376974 Z M585.258145,444.811974 L574.676145,444.811974 L574.676145,341.136974 L585.258145,341.136974 L585.258145,444.811974 Z M658.045145,447.528974 C628.158145,447.528974 607.852145,432.084974 607.852145,409.061974 C607.852145,386.038974 628.158145,370.594974 658.045145,370.594974 C687.789145,370.594974 708.095145,386.038974 708.095145,409.061974 C708.095145,432.084974 687.789145,447.528974 658.045145,447.528974 Z M658.045145,438.376974 C681.640145,438.376974 696.941145,427.079974 696.941145,409.061974 C696.941145,391.043974 681.640145,379.746974 658.045145,379.746974 C634.450145,379.746974 619.006145,391.043974 619.006145,409.061974 C619.006145,427.079974 634.450145,438.376974 658.045145,438.376974 Z M744.703145,444.811974 L728.115145,444.811974 L728.115145,429.081974 L744.703145,429.081974 L744.703145,444.811974 Z M815.774145,447.528974 C789.605145,447.528974 774.447145,439.949974 766.868145,425.935974 L776.592145,421.502974 C782.169145,432.656974 795.325145,438.805974 817.347145,438.805974 C836.080145,438.805974 845.804145,434.086974 845.804145,424.648974 C845.804145,418.499974 842.229145,415.210974 829.788145,414.352974 L794.610145,411.635974 C778.165145,410.205974 769.728145,404.342974 769.728145,392.330974 C769.728145,378.888974 784.457145,370.594974 809.053145,370.594974 C834.364145,370.594974 849.665145,377.887974 855.528145,389.756974 L845.375145,393.760974 C839.369145,383.893974 829.073145,379.174974 808.052145,379.174974 C789.033145,379.174974 780.310145,383.893974 780.310145,392.044974 C780.310145,398.193974 785.315145,401.625974 796.183145,402.483974 L831.504145,405.200974 C849.808145,406.773974 856.386145,413.065974 856.386145,424.076974 C856.386145,438.090974 844.517145,447.528974 815.774145,447.528974 Z M867.826145,373.311974 L890.563145,373.311974 L890.563145,354.435974 L901.002145,349.859974 L901.002145,373.311974 L937.038145,373.311974 L937.038145,382.034974 L901.002145,382.034974 L901.002145,418.928974 C901.002145,432.084974 908.295145,436.803974 920.736145,436.803974 C926.456145,436.803974 932.176145,436.088974 937.324145,434.801974 L937.324145,444.239974 C933.606145,445.669974 926.027145,446.813974 919.878145,446.813974 C895.425145,446.813974 890.563145,433.800974 890.563145,419.786974 L890.563145,382.034974 L867.826145,382.034974 L867.826145,373.311974 Z M996.669145,447.528974 C969.928145,447.528974 956.200145,435.230974 956.200145,409.347974 L956.200145,373.311974 L966.639145,373.311974 L966.639145,408.918974 C966.639145,432.942974 983.227145,438.519974 998.242145,438.519974 C1026.55615,438.519974 1037.71015,420.358974 1037.71015,405.486974 L1037.71015,373.311974 L1048.29215,373.311974 L1048.29215,444.811974 L1037.85315,444.811974 L1037.85315,424.362974 C1031.56115,439.663974 1016.40315,447.528974 996.669145,447.528974 Z M1118.21915,447.528974 C1090.33415,447.528974 1070.74315,431.512974 1070.74315,409.204974 C1070.74315,386.324974 1089.76215,370.594974 1118.79115,370.594974 C1137.95315,370.594974 1152.11015,377.029974 1160.69015,389.184974 L1160.69015,341.136974 L1171.12915,341.136974 L1171.12915,444.811974 L1160.83315,444.811974 L1160.83315,428.652974 C1152.68215,440.950974 1138.09615,447.528974 1118.21915,447.528974 Z M1120.93615,438.233974 C1144.53115,438.233974 1160.83315,426.650974 1160.83315,410.920974 L1160.83315,408.060974 C1160.83315,391.901974 1143.95915,379.746974 1119.79215,379.746974 C1096.05415,379.746974 1081.89715,391.043974 1081.89715,409.204974 C1081.89715,426.936974 1096.91215,438.233974 1120.93615,438.233974 Z M1202.58915,344.139974 L1215.45915,344.139974 L1215.45915,360.298974 L1202.58915,360.298974 L1202.58915,344.139974 Z M1203.87615,373.311974 L1214.45815,373.311974 L1214.45815,444.811974 L1203.87615,444.811974 L1203.87615,373.311974 Z M1286.53015,447.528974 C1256.64315,447.528974 1236.33715,432.084974 1236.33715,409.061974 C1236.33715,386.038974 1256.64315,370.594974 1286.53015,370.594974 C1316.27415,370.594974 1336.58015,386.038974 1336.58015,409.061974 C1336.58015,432.084974 1316.27415,447.528974 1286.53015,447.528974 Z M1286.53015,438.376974 C1310.12515,438.376974 1325.42615,427.079974 1325.42615,409.061974 C1325.42615,391.043974 1310.12515,379.746974 1286.53015,379.746974 C1262.93515,379.746974 1247.49115,391.043974 1247.49115,409.061974 C1247.49115,427.079974 1262.93515,438.376974 1286.53015,438.376974 Z" id="popolo.studio"></path>
        </g>
    </g>
</svg>
