<svg data-name="Ebene 1" xmlns="http://www.w3.org/2000/svg" viewBox="0 0 70.52 22.57"><path d="M61.07 11.85a11.07 11.07 0 0 1-1.4.24c-.87.07-1.74.08-2.6.14-2.49.19-5 .22-7.46.62-3 .51-6.09.2-9.11.53-5.8.63-11.62.3-17.42.49-2 .06-3.92.16-5.88.16-1.43 0-2.86-.18-4.29-.2-3.59-.06-7.18-.09-10.78-.12a2 2 0 0 1-2.1-2.18 1.43 1.43 0 0 1 1.13-1.28 2.08 2.08 0 0 1 .43 0c3.85.07 7.72 0 11.56.27 4.48.3 9 .16 13.44.09 4.66-.07 9.33-.09 14-.47 2.74-.23 5.5-.15 8.21-.49 1.94-.24 3.89-.31 5.84-.46 1.74-.13 3.49-.3 5.23-.48.62-.06 1.23-.21 1.84-.32.31-.06.47-.26.21-.5-.4-.4-.87-.74-1.3-1.11s-1.15-.94-1.67-1.47-.91-1.08-1.37-1.63c-.24-.28-.47-.57-.73-.83a1.81 1.81 0 0 1 .12-2.43 1.88 1.88 0 0 1 2.49.07c.59.47 1.24.87 1.86 1.32s1.16.92 1.77 1.34c.81.56 1.67 1.06 2.49 1.62.52.37 1 .8 1.51 1.17s1.33.86 1.95 1.36a6.44 6.44 0 0 1 1.31 1.35 1.62 1.62 0 0 1-.62 2c-1.3.81-2.57 1.65-3.87 2.45-.88.55-1.8 1-2.68 1.6s-1.74 1.2-2.63 1.79c-.59.39-1.21.72-1.8 1.11-.93.62-1.84 1.26-2.77 1.88s-1.76 1.12-2.65 1.67c-.68.42-1.37.84-2.09 1.2a1.23 1.23 0 0 1-.94.13 1.94 1.94 0 0 1-1.22-1.42 1.85 1.85 0 0 1 1-1.88 77 77 0 0 1 2.84-1.86c.65-.41 1.32-.78 2-1.19s1.09-.71 1.66-1.08 1.3-.85 1.94-1.3 1.63-.72 2.15-1.53c.07-.12.31-.14.47-.21z"/></svg>